# xmcd
#
# Track frame offsets:
#	150
#	18475
#	32725
#	49630
#	68132
#	80577
#	98162
#	113377
#	127352
#	144217
#	157675
#	172812
#	189910
#	206587
#	223107
#	242110
#	255982
#	273380
#
# Disc length: 3823
#
# Revision: 2
# Processed by: cddbd v1.5.1PL0 Copyright (c) Steve Scherf et al.
# Submitted via: audiograbber 1.83.01
# Normalized: r1:DSETVAR1
#
DISCID=ed0eed12
DTITLE=Various Artist - NuTech  A11
DYEAR=1900
DGENRE=various
TTITLE0=Dwight Yoakam - A Thousand Miles From Nowhere
TTITLE1=Gary Morris - Don't Look Back
TTITLE2=Shawn Camp - Fallin' Never Felt So Good
TTITLE3=Lionel Cartwright - Give Me His Last Chance
TTITLE4=Janie Fricke - He's A Heartache (Looking For A Place To Happen)
TTITLE5=Billy Ray Cyrus - Heart Of A Woman
TTITLE6=Alabama - Hometown Honeymoon
TTITLE7=Restless Heart - Mending Fences
TTITLE8=Glen Campbell - Old Home Town
TTITLE9=Barbara Mandrell - One Of A Kind Pair Of Fools
TTITLE10=Mary Chapin-Carpenter - Passionate Kisses
TTITLE11=Linda Ronstadt - Poor Poor Pitiful Me
TTITLE12=Glen Campbell - Rhinestone Cowboy
TTITLE13=Bette Midler - The Rose
TTITLE14=Trisha Yearwood - She's In Love With The Boy
TTITLE15=Rosanne Cash - Tennessee Flat Top Box
TTITLE16=Kenny Rogers - Twenty Years Ago
TTITLE17=Everly Brothers - Walk Right Back
EXTD=
EXTT0=
EXTT1=
EXTT2=
EXTT3=
EXTT4=
EXTT5=
EXTT6=
EXTT7=
EXTT8=
EXTT9=
EXTT10=
EXTT11=
EXTT12=
EXTT13=
EXTT14=
EXTT15=
EXTT16=
EXTT17=
PLAYORDER=
